<?xml version="1.0" encoding="UTF-8" standalone="no"?>
<svg
   width="572"
   height="542"
   version="1.1"
   id="svg1"
   sodipodi:docname="pySLAMMER_logo_square.svg"
   inkscape:version="1.4 (e7c3feb1, 2024-10-09)"
   inkscape:export-filename="/Users/lornearnold/Downloads/pySLAMMER_logo_square.png"
   inkscape:export-xdpi="300"
   inkscape:export-ydpi="300"
   xmlns:inkscape="http://www.inkscape.org/namespaces/inkscape"
   xmlns:sodipodi="http://sodipodi.sourceforge.net/DTD/sodipodi-0.dtd"
   xmlns="http://www.w3.org/2000/svg"
   xmlns:svg="http://www.w3.org/2000/svg">
  <defs
     id="defs1" />
  <sodipodi:namedview
     id="namedview1"
     pagecolor="#ffffff"
     bordercolor="#000000"
     borderopacity="0.25"
     inkscape:showpageshadow="2"
     inkscape:pageopacity="0.0"
     inkscape:pagecheckerboard="0"
     inkscape:deskcolor="#d1d1d1"
     inkscape:zoom="1.6199262"
     inkscape:cx="287.05011"
     inkscape:cy="271"
     inkscape:window-width="1920"
     inkscape:window-height="1027"
     inkscape:window-x="1512"
     inkscape:window-y="25"
     inkscape:window-maximized="1"
     inkscape:current-layer="svg_20"
     inkscape:export-bgcolor="#ffffffff" />
  <g
     id="Layer_1">
    <title
       id="title1">Layer 1</title>
    <path
       fill="none"
       stroke="#000"
       stroke-width="2"
       opacity="NaN"
       d="m120,299"
       id="svg_13"
       style="opacity:1" />
    <path
       id="svg_5"
       d="M 103.6,112.14999"
       opacity="0"
       stroke-width="2"
       fill="#ffd43b"
       style="display:inline;opacity:1" />
    <path
       id="svg_6"
       d="m90.6,111.14999"
       opacity="NaN"
       stroke-width="2"
       fill="#ffd43b"
       style="opacity:1" />
    <path
       transform="rotate(150,637.266,162.595)"
       fill="none"
       stroke="#000000"
       stroke-width="2"
       opacity="NaN"
       d="M 637.26654,162.59515"
       id="svg_9"
       style="display:inline;opacity:1" />
    <g
       id="svg_20">
      <g
         id="svg_16">
        <g
           stroke="null"
           id="svg_10"
           transform="rotate(-30 214.434 147.538)">
          <path
             stroke="null"
             fill="#306998"
             stroke-width="2"
             opacity="NaN"
             d="m-25.21686,268.71536c0.64835,1.57007 1.95523,3.21347 3.3353,4.1983c1.38008,0.98511 3.27232,1.5311 4.94508,1.71149l476.4269,-0.09048c3.11731,0.00858 5.82123,-2.25247 7.70038,-4.20303c1.39719,-2.36395 1.9696,-5.34692 1.51056,-8.12323c-70.52316,-244.37285 -215.71532,-284.11053 -363.62093,-204.89045c-1.46674,1.15386 -2.85632,2.38477 -3.70682,3.84684c-0.85059,1.46206 -1.31534,2.84708 -1.31824,4.92554l16.70462,93.221l-147.54564,0.64479c-1.91151,0.13335 -4.82498,1.34576 -6.3517,2.94299c-1.52676,1.59624 -2.7449,4.504 -2.80777,6.64029c-0.16475,27.33931 -0.60194,42.03426 14.72829,99.17595l0,0l-0.00002,0l-0.00001,0z"
             id="svg_23"
             style="opacity:1" />
          <ellipse
             stroke="null"
             ry="9.2817"
             rx="9.2817"
             id="svg_24"
             cy="101.12214"
             cx="151.97828"
             stroke-width="2"
             fill="#ffffff" />
          <rect
             stroke="null"
             fill="#ffffff"
             stroke-width="2"
             x="115.73089"
             y="155.43024"
             width="130.37277"
             height="3.80969"
             id="svg_21" />
        </g>
        <g
           id="svg_38"
           transform="rotate(-30 250.712 210.374)">
          <rect
             id="svg_31"
             height="5.20978"
             width="75"
             y="207.84543"
             x="226.82914"
             stroke-width="2"
             stroke="null"
             fill="#000000" />
          <path
             transform="rotate(180 216.527 210.374)"
             id="svg_32"
             d="m205.89264,210.37473l-6.29718,-17.8002l33.86359,17.8002l-33.86359,17.79999l6.29718,-17.79999z"
             stroke-width="2"
             stroke="null"
             fill="#000000" />
        </g>
        <ellipse
           fill="#fff"
           cx="137.05467"
           cy="139"
           id="svg_3"
           rx="16"
           ry="16" />
        <rect
           fill="#fff"
           x="121.22785"
           y="163.69702"
           width="132.8482"
           height="11.44728"
           id="svg_11"
           transform="rotate(-30 187.652 169.421)" />
      </g>
      <g
         id="svg_17">
        <g
           id="svg_8"
           transform="rotate(-30 359.028 380.198)">
          <path
             transform="rotate(180 359.028 380.197)"
             fill="#ffd43b"
             stroke-width="2"
             opacity="NaN"
             d="m79.03606,509.49976c0.27802,3.34998 1.31401,5.50897 3.32501,7.77698c1.866,1.797 4.05701,2.83698 7.006,2.79401l539.68102,-0.04199c3.25897,-0.26801 4.177,-1.00702 6.755,-3.05304c2.23199,-2.27399 3.12097,-5.14697 3.21698,-7.92896c-8.01202,-190.59402 -202.078,-337.62 -414.19403,-235.04703c-2.33496,0.98001 -4.16101,2.341 -5.60501,4.466c-1.08896,1.88101 -1.79697,4.52399 -1.61392,7.168l-0.22104,105.69601l-101.60799,-0.565c-1.905,0.06198 -3.914,1.16498 -5.50699,2.16498c-1.45401,1.172 -2.492,2.44901 -3.321,4.35101c-18.675,46.009 -23.39601,57.46298 -27.91402,112.21899l-0.00003,0l0.00001,0.00003z"
             id="svg_12"
             style="opacity:1" />
          <rect
             fill="#ffffff"
             stroke-width="2"
             x="363.45176"
             y="369.03218"
             width="137.21318"
             height="4"
             id="svg_19"
             stroke="null" />
          <ellipse
             transform="rotate(180 442.021 437.528)"
             ry="10.49421"
             rx="10.49421"
             id="svg_15"
             cy="437.52862"
             cx="442.0215"
             stroke-width="2"
             fill="#ffffff" />
        </g>
        <g
           id="svg_37"
           transform="rotate(-30 313.001 299.941)">
          <path
             id="svg_34"
             d="m365.41113,299.94058l-6.29712,-17.8002l33.86353,17.8002l-33.86353,17.79996l6.29712,-17.79996z"
             stroke-width="2"
             stroke="null"
             fill="#000000" />
          <rect
             id="svg_35"
             height="5.20978"
             width="106.80047"
             y="297.41126"
             x="260.25817"
             stroke-width="2"
             stroke="null"
             fill="#000000" />
          <path
             transform="rotate(180 249.956 299.941)"
             id="svg_36"
             d="m239.32172,299.94058l-6.29718,-17.8002l33.86353,17.8002l-33.86353,17.79996l6.29718,-17.79996z"
             stroke-width="2"
             stroke="null"
             fill="#000000" />
        </g>
        <ellipse
           fill="#fff"
           cx="460.05467"
           cy="387"
           id="svg_4"
           rx="16"
           ry="16" />
        <rect
           fill="#fff"
           x="350.19457"
           y="333.90357"
           width="138.58566"
           height="11.44728"
           id="svg_14"
           transform="rotate(-30 419.487 339.627)"
           stroke="null" />
      </g>
    </g>
  </g>
</svg>
