<?xml version="1.0" encoding="UTF-8" standalone="no"?>
<svg xmlns="http://www.w3.org/2000/svg"
     contentScriptType="application/ecmascript" contentStyleType="text/css"
     height="471px" preserveAspectRatio="none"
     style="width:1130px;height:471px;" version="1.1" viewBox="0 0 1130 471"
     width="1130px" zoomAndPan="magnify">
    <defs>
        <filter height="300%" id="f1kewxcg36ixfi" width="300%" x="-1" y="-1">
            <feGaussianBlur result="blurOut" stdDeviation="2.0"/>
            <feColorMatrix in="blurOut" result="blurOut2" type="matrix"
                           values="0 0 0 0 0 0 0 0 0 0 0 0 0 0 0 0 0 0 .4 0"/>
            <feOffset dx="4.0" dy="4.0" in="blurOut2" result="blurOut3"/>
            <feBlend in="SourceGraphic" in2="blurOut3" mode="normal"/>
        </filter>
    </defs>
    <g><!--MD5=[2f48f1cfc672a7588f69a0ea84363b96]
cluster palaestrai.agent-->
        <polygon fill="#FFFFFF" filter="url(#f1kewxcg36ixfi)"
                 points="16,6,135,6,142,28.0986,926,28.0986,926,464,16,464,16,6"
                 style="stroke:#000000;stroke-width:1.5;"/>
        <line style="stroke:#000000;stroke-width:1.5;" x1="16" x2="142"
              y1="28.0986" y2="28.0986"/>
        <text fill="#000000" font-family="sans-serif" font-size="14"
              font-weight="bold" lengthAdjust="spacing" textLength="113"
              x="20" y="21.3608">palaestrai.agent
        </text><!--MD5=[61042f892ca39fe7c292937feb51737d]
cluster palaestrai.environment-->
        <polygon fill="#FFFFFF" filter="url(#f1kewxcg36ixfi)"
                 points="934,381,1103,381,1110,403.0986,1113,403.0986,1113,464,934,464,934,381"
                 style="stroke:#000000;stroke-width:1.5;"/>
        <line style="stroke:#000000;stroke-width:1.5;" x1="934" x2="1110"
              y1="403.0986" y2="403.0986"/>
        <text fill="#000000" font-family="sans-serif" font-size="14"
              font-weight="bold" lengthAdjust="spacing" textLength="163"
              x="938" y="396.3608">palaestrai.environment
        </text><!--MD5=[7ffc1a6e0bca1b553ac06e9b279da17c]
class palaestrai.agent.Agent-->
        <rect codeLine="2" fill="#FEFECE" filter="url(#f1kewxcg36ixfi)"
              height="48" id="palaestrai.agent.Agent"
              style="stroke:#A80036;stroke-width:1.5;" width="63" x="581.5"
              y="33"/>
        <ellipse cx="596.5" cy="49" fill="#ADD1B2" rx="11" ry="11"
                 style="stroke:#A80036;stroke-width:1.0;"/>
        <path d="M596.0469,54.7031 C593.2969,54.7031 590.9219,52.75 590.9219,49.0313 C590.9219,45.3594 593.25,43.2188 596.2031,43.2188 C597.6094,43.2188 598.7656,43.8906 599.5156,44.625 L598.1406,46.1719 C597.6094,45.6875 597.0156,45.375 596.2031,45.375 C594.6406,45.375 593.4844,46.7188 593.4844,48.9375 C593.4844,51.2188 594.6406,52.5469 596.3125,52.5469 C597.1094,52.5469 597.7656,52.1563 598.3125,51.5625 L599.6875,53.0781 C598.7813,54.1406 597.5469,54.7031 596.0469,54.7031 Z "
              fill="#000000"/>
        <text fill="#000000" font-family="sans-serif" font-size="12"
              lengthAdjust="spacing" textLength="31" x="610.5" y="53.5527">
            Agent
        </text>
        <line style="stroke:#A80036;stroke-width:1.5;" x1="582.5" x2="643.5"
              y1="65" y2="65"/>
        <line style="stroke:#A80036;stroke-width:1.5;" x1="582.5" x2="643.5"
              y1="73" y2="73"/><!--MD5=[31458033dd39cc90bec363260733b4fd]
class palaestrai.agent.Brain-->
        <rect codeLine="7" fill="#FEFECE" filter="url(#f1kewxcg36ixfi)"
              height="60.6489" id="palaestrai.agent.Brain"
              style="stroke:#A80036;stroke-width:1.5;" width="761" x="24.5"
              y="141"/>
        <ellipse cx="386.25" cy="157" fill="#A9DCDF" rx="11" ry="11"
                 style="stroke:#A80036;stroke-width:1.0;"/>
        <path d="M385.3906,155.8906 L385.1406,156.9063 L387.4688,156.9063 L387.2188,155.8906 C386.9219,154.7813 386.5938,153.5 386.3281,152.3125 L386.2656,152.3125 C386,153.5 385.6875,154.7813 385.3906,155.8906 Z M381.4063,161.5 L384.8594,150.4219 L387.8438,150.4219 L391.2969,161.5 L388.6406,161.5 L387.9844,158.8594 L384.6406,158.8594 L383.9531,161.5 Z "
              fill="#000000"/>
        <text fill="#000000" font-family="sans-serif" font-size="12"
              font-style="italic" lengthAdjust="spacing" textLength="29"
              x="406.75" y="161.5527">Brain
        </text>
        <line style="stroke:#A80036;stroke-width:1.5;" x1="25.5" x2="784.5"
              y1="173" y2="173"/>
        <line style="stroke:#A80036;stroke-width:1.5;" x1="25.5" x2="784.5"
              y1="181" y2="181"/>
        <ellipse cx="35.5" cy="192" fill="#84BE84" rx="3" ry="3"
                 style="stroke:#038048;stroke-width:1.0;"/>
        <text fill="#000000" font-family="sans-serif" font-size="11"
              font-style="italic" lengthAdjust="spacing" textLength="735"
              x="44.5" y="195.4978">thinking(muscle_id : string, readings :
            palaestrai.Agent.SensorInforation[], actions :
            palaestrai.Agent.ActuatorInformation[], reward : float[], done :
            bool)
        </text><!--MD5=[49122c8e4aba8f16f29745a5f91f1238]
class palaestrai.agent.Muscle-->
        <rect codeLine="11" fill="#FEFECE" filter="url(#f1kewxcg36ixfi)"
              height="85.9468" id="palaestrai.agent.Muscle"
              style="stroke:#A80036;stroke-width:1.5;" width="820" x="98"
              y="262"/>
        <ellipse cx="484.75" cy="278" fill="#A9DCDF" rx="11" ry="11"
                 style="stroke:#A80036;stroke-width:1.0;"/>
        <path d="M483.8906,276.8906 L483.6406,277.9063 L485.9688,277.9063 L485.7188,276.8906 C485.4219,275.7813 485.0938,274.5 484.8281,273.3125 L484.7656,273.3125 C484.5,274.5 484.1875,275.7813 483.8906,276.8906 Z M479.9063,282.5 L483.3594,271.4219 L486.3438,271.4219 L489.7969,282.5 L487.1406,282.5 L486.4844,279.8594 L483.1406,279.8594 L482.4531,282.5 Z "
              fill="#000000"/>
        <text fill="#000000" font-family="sans-serif" font-size="12"
              font-style="italic" lengthAdjust="spacing" textLength="38"
              x="505.25" y="282.5527">Muscle
        </text>
        <line style="stroke:#A80036;stroke-width:1.5;" x1="99" x2="917"
              y1="294" y2="294"/>
        <text fill="#000000" font-family="sans-serif" font-size="11"
              lengthAdjust="spacing" textLength="50" x="104" y="308.4978">uid
            : string
        </text>
        <line style="stroke:#A80036;stroke-width:1.5;" x1="99" x2="917"
              y1="314.6489" y2="314.6489"/>
        <ellipse cx="109" cy="325.6489" fill="#84BE84" rx="3" ry="3"
                 style="stroke:#038048;stroke-width:1.0;"/>
        <text fill="#000000" font-family="sans-serif" font-size="11"
              font-style="italic" lengthAdjust="spacing" textLength="794"
              x="118" y="329.1467">proposeActions(sensors :
            palaestrai.Agent.SensorInforation[], actuators_available :
            palaestrai.Agent.ActuatorInformation[]) :
            palaestrai.agent.ActuatorInformation[]
        </text>
        <ellipse cx="109" cy="338.2979" fill="#84BE84" rx="3" ry="3"
                 style="stroke:#038048;stroke-width:1.0;"/>
        <text fill="#000000" font-family="sans-serif" font-size="11"
              font-style="italic" lengthAdjust="spacing" textLength="74"
              x="118" y="341.7957">update(update)
        </text><!--MD5=[aae46ad9f6ebdff3b71de2f8ace25f9d]
class palaestrai.agent.SensorInformation-->
        <rect codeLine="17" fill="#FEFECE" filter="url(#f1kewxcg36ixfi)"
              height="48" id="palaestrai.agent.SensorInformation"
              style="stroke:#A80036;stroke-width:1.5;" width="134" x="147"
              y="408"/>
        <ellipse cx="162" cy="424" fill="#ADD1B2" rx="11" ry="11"
                 style="stroke:#A80036;stroke-width:1.0;"/>
        <path d="M161.5469,429.7031 C158.7969,429.7031 156.4219,427.75 156.4219,424.0313 C156.4219,420.3594 158.75,418.2188 161.7031,418.2188 C163.1094,418.2188 164.2656,418.8906 165.0156,419.625 L163.6406,421.1719 C163.1094,420.6875 162.5156,420.375 161.7031,420.375 C160.1406,420.375 158.9844,421.7188 158.9844,423.9375 C158.9844,426.2188 160.1406,427.5469 161.8125,427.5469 C162.6094,427.5469 163.2656,427.1563 163.8125,426.5625 L165.1875,428.0781 C164.2813,429.1406 163.0469,429.7031 161.5469,429.7031 Z "
              fill="#000000"/>
        <text fill="#000000" font-family="sans-serif" font-size="12"
              lengthAdjust="spacing" textLength="102" x="176" y="428.5527">
            SensorInformation
        </text>
        <line style="stroke:#A80036;stroke-width:1.5;" x1="148" x2="280"
              y1="440" y2="440"/>
        <line style="stroke:#A80036;stroke-width:1.5;" x1="148" x2="280"
              y1="448" y2="448"/><!--MD5=[99ea69162a58eafd91e772dbf7f786f6]
class palaestrai.agent.ActuatorInformation-->
        <rect codeLine="21" fill="#FEFECE" filter="url(#f1kewxcg36ixfi)"
              height="48" id="palaestrai.agent.ActuatorInformation"
              style="stroke:#A80036;stroke-width:1.5;" width="138" x="377"
              y="408"/>
        <ellipse cx="392" cy="424" fill="#ADD1B2" rx="11" ry="11"
                 style="stroke:#A80036;stroke-width:1.0;"/>
        <path d="M391.5469,429.7031 C388.7969,429.7031 386.4219,427.75 386.4219,424.0313 C386.4219,420.3594 388.75,418.2188 391.7031,418.2188 C393.1094,418.2188 394.2656,418.8906 395.0156,419.625 L393.6406,421.1719 C393.1094,420.6875 392.5156,420.375 391.7031,420.375 C390.1406,420.375 388.9844,421.7188 388.9844,423.9375 C388.9844,426.2188 390.1406,427.5469 391.8125,427.5469 C392.6094,427.5469 393.2656,427.1563 393.8125,426.5625 L395.1875,428.0781 C394.2813,429.1406 393.0469,429.7031 391.5469,429.7031 Z "
              fill="#000000"/>
        <text fill="#000000" font-family="sans-serif" font-size="12"
              lengthAdjust="spacing" textLength="106" x="406" y="428.5527">
            ActuatorInformation
        </text>
        <line style="stroke:#A80036;stroke-width:1.5;" x1="378" x2="514"
              y1="440" y2="440"/>
        <line style="stroke:#A80036;stroke-width:1.5;" x1="378" x2="514"
              y1="448" y2="448"/><!--MD5=[0c02e7e4b714a207dd171c47cf4441bf]
class palaestrai.environment.Environment-->
        <rect codeLine="25" fill="#FEFECE" filter="url(#f1kewxcg36ixfi)"
              height="48" id="palaestrai.environment.Environment"
              style="stroke:#A80036;stroke-width:1.5;" width="102" x="942"
              y="408"/>
        <ellipse cx="957" cy="424" fill="#A9DCDF" rx="11" ry="11"
                 style="stroke:#A80036;stroke-width:1.0;"/>
        <path d="M956.1406,422.8906 L955.8906,423.9063 L958.2188,423.9063 L957.9688,422.8906 C957.6719,421.7813 957.3438,420.5 957.0781,419.3125 L957.0156,419.3125 C956.75,420.5 956.4375,421.7813 956.1406,422.8906 Z M952.1563,428.5 L955.6094,417.4219 L958.5938,417.4219 L962.0469,428.5 L959.3906,428.5 L958.7344,425.8594 L955.3906,425.8594 L954.7031,428.5 Z "
              fill="#000000"/>
        <text fill="#000000" font-family="sans-serif" font-size="12"
              font-style="italic" lengthAdjust="spacing" textLength="70"
              x="971" y="428.5527">Environment
        </text>
        <line style="stroke:#A80036;stroke-width:1.5;" x1="943" x2="1043"
              y1="440" y2="440"/>
        <line style="stroke:#A80036;stroke-width:1.5;" x1="943" x2="1043"
              y1="448" y2="448"/><!--MD5=[b92586716dafe0628f5add2a3fc4d633]
reverse link palaestrai.agent.Agent to palaestrai.agent.Brain-->
        <path codeLine="29"
              d="M569.86,80.7478 C538.1221,98.2188 494.7175,122.1123 460.4115,140.997 "
              fill="none"
              id="palaestrai.agent.Agent-backto-palaestrai.agent.Brain"
              style="stroke:#A80036;stroke-width:1.0;"/>
        <polygon fill="#A80036"
                 points="581.4093,74.3901,574.2241,73.7794,570.8968,80.177,578.082,80.7877,581.4093,74.3901"
                 style="stroke:#A80036;stroke-width:1.0;"/>
        <text fill="#000000" font-family="sans-serif" font-size="13"
              lengthAdjust="spacing" textLength="7" x="566.2946" y="75.309">1
        </text>
        <text fill="#000000" font-family="sans-serif" font-size="13"
              lengthAdjust="spacing" textLength="7" x="466.0649" y="130.4206">
            1
        </text><!--MD5=[851aba948066244d9a562eaa48ce743b]
reverse link palaestrai.agent.Agent to palaestrai.agent.Muscle-->
        <path codeLine="30"
              d="M657.6651,62.7665 C703.0234,71.2631 771.0026,91.8688 803,141 C817.7954,163.718 818.6959,179.8946 803,202 C787.179,224.2815 738.1197,244.9782 684.4347,261.8865 "
              fill="none"
              id="palaestrai.agent.Agent-backto-palaestrai.agent.Muscle"
              style="stroke:#A80036;stroke-width:1.0;"/>
        <polygon fill="#A80036"
                 points="644.6651,60.5444,649.9053,65.4982,656.4935,62.5665,651.2533,57.6126,644.6651,60.5444"
                 style="stroke:#A80036;stroke-width:1.0;"/>
        <text fill="#000000" font-family="sans-serif" font-size="13"
              lengthAdjust="spacing" textLength="7" x="652.3575" y="58.2987">1
        </text>
        <text fill="#000000" font-family="sans-serif" font-size="13"
              lengthAdjust="spacing" textLength="5" x="710.4168" y="251.4558">
            *
        </text><!--MD5=[e07b925eec35a3c13fbf79c4dc3759e2]
link palaestrai.agent.Brain to palaestrai.agent.Muscle-->
        <path codeLine="31"
              d="M428.6303,202.1276 C442.2906,219.833 459.6946,242.3906 474.7222,261.8681 "
              fill="none" id="palaestrai.agent.Brain-palaestrai.agent.Muscle"
              style="stroke:#A80036;stroke-width:1.0;stroke-dasharray:7.0,7.0;"/>
        <text fill="#000000" font-family="sans-serif" font-size="13"
              lengthAdjust="spacing" textLength="7" x="425.5935" y="222.07">1
        </text>
        <text fill="#000000" font-family="sans-serif" font-size="13"
              lengthAdjust="spacing" textLength="5" x="463.3493" y="251.4341">
            *
        </text><!--MD5=[9d58f6825438db365ae68a7d68f9cbe1]
reverse link palaestrai.agent.Brain to palaestrai.agent.SensorInformation-->
        <path codeLine="32"
              d="M188.7442,204.9193 C127.6865,219.0135 72.7066,237.8583 54,262 C30.5886,292.2133 34.2282,315.2889 54,348 C74.2049,381.4278 112.5998,402.2091 146.7133,414.7384 "
              fill="none"
              id="palaestrai.agent.Brain-backto-palaestrai.agent.SensorInformation"
              style="stroke:#A80036;stroke-width:1.0;"/>
        <polygon fill="#A80036"
                 points="201.4403,202.0738,194.7107,199.4829,189.7308,204.6982,196.4604,207.2892,201.4403,202.0738"
                 style="stroke:#A80036;stroke-width:1.0;"/>
        <text fill="#000000" font-family="sans-serif" font-size="13"
              lengthAdjust="spacing" textLength="7" x="153.6754" y="222.0056">
            1
        </text>
        <text fill="#000000" font-family="sans-serif" font-size="13"
              lengthAdjust="spacing" textLength="5" x="134.0804" y="410.5432">
            *
        </text><!--MD5=[b1b96e796f6da887966ec3e27a77615d]
reverse link palaestrai.agent.Brain to palaestrai.agent.ActuatorInformation-->
        <path codeLine="33"
              d="M211.8104,205.0912 C152.8395,219.5289 98.8002,238.5465 81,262 C57.8925,292.4464 56.0773,319.0207 81,348 C112.9479,385.148 251.4324,369.254 299,381 C327.7168,388.0911 358.7619,398.4468 384.8896,407.977 "
              fill="none"
              id="palaestrai.agent.Brain-backto-palaestrai.agent.ActuatorInformation"
              style="stroke:#A80036;stroke-width:1.0;"/>
        <polygon fill="#A80036"
                 points="224.4577,202.08,217.6944,199.5785,212.784,204.8595,219.5474,207.361,224.4577,202.08"
                 style="stroke:#A80036;stroke-width:1.0;"/>
        <text fill="#000000" font-family="sans-serif" font-size="13"
              lengthAdjust="spacing" textLength="7" x="181.2244" y="222.013">1
        </text>
        <text fill="#000000" font-family="sans-serif" font-size="13"
              lengthAdjust="spacing" textLength="5" x="364.3846" y="398.9373">
            *
        </text><!--MD5=[bc10a8ad7de748c3321251908e96d386]
link palaestrai.agent.Muscle to palaestrai.agent.SensorInformation-->
        <path codeLine="34"
              d="M408.0548,348.1736 C361.9434,368.0925 308.9266,390.9943 269.9729,407.8212 "
              fill="none"
              id="palaestrai.agent.Muscle-palaestrai.agent.SensorInformation"
              style="stroke:#A80036;stroke-width:1.0;stroke-dasharray:7.0,7.0;"/><!--MD5=[2c00d13aa4d8a3e057117601321be0fe]
link palaestrai.agent.Muscle to palaestrai.agent.ActuatorInformation-->
        <path codeLine="35"
              d="M486.8365,348.351 C477.1545,368.1836 466.0443,390.9416 457.8591,407.7079 "
              fill="none"
              id="palaestrai.agent.Muscle-palaestrai.agent.ActuatorInformation"
              style="stroke:#A80036;stroke-width:1.0;stroke-dasharray:7.0,7.0;"/><!--MD5=[9b00bfd8f150034afadcd022ae8b9560]
link palaestrai.agent.Muscle to palaestrai.environment.Environment-->
        <path codeLine="36"
              d="M812.4224,348.0056 C864.2791,358.0333 909.3304,369.2449 934,381 C947.6895,387.5231 960.6936,398.1002 970.9919,407.9355 "
              fill="none"
              id="palaestrai.agent.Muscle-palaestrai.environment.Environment"
              style="stroke:#A80036;stroke-width:1.0;stroke-dasharray:7.0,7.0;"/><!--MD5=[14d69621ffd56cf009d9cae376d536bf]
@startuml

class palaestrai.agent.Agent {

}


abstract class palaestrai.agent.Brain {
    {abstract} + thinking(muscle_id : string, readings : palaestrai.Agent.SensorInforation[], actions : palaestrai.Agent.ActuatorInformation[], reward : float[], done : bool)
}

abstract class palaestrai.agent.Muscle {
    uid : string
    {abstract} + proposeActions(sensors : palaestrai.Agent.SensorInforation[], actuators_available : palaestrai.Agent.ActuatorInformation[]) : palaestrai.agent.ActuatorInformation[]
    {abstract} + update(update)
}

class palaestrai.agent.SensorInformation {

}

class palaestrai.agent.ActuatorInformation {

}

abstract class palaestrai.environment.Environment {

}

palaestrai.agent.Agent "1" *- - "1" palaestrai.agent.Brain
palaestrai.agent.Agent "1" *- - "*" palaestrai.agent.Muscle
palaestrai.agent.Brain "1" .. "*" palaestrai.agent.Muscle
palaestrai.agent.Brain "1" *- - "*" palaestrai.agent.SensorInformation
palaestrai.agent.Brain "1" *- - "*" palaestrai.agent.ActuatorInformation
palaestrai.agent.Muscle .. palaestrai.agent.SensorInformation
palaestrai.agent.Muscle .. palaestrai.agent.ActuatorInformation
palaestrai.agent.Muscle .. palaestrai.environment.Environment
@enduml

PlantUML version 1.2021.5(Sun Apr 25 13:20:28 CEST 2021)
(GPL source distribution)
Java Runtime: Java(TM) SE Runtime Environment
JVM: Java HotSpot(TM) 64-Bit Server VM
Default Encoding: UTF-8
Language: en
Country: US
-->
    </g>
</svg>