<?xml version="1.0" encoding="UTF-8" standalone="no"?>
<svg
   viewBox="0 0 24 24"
   version="1.1"
   id="svg826"
   sodipodi:docname="nextcloud.svg"
   inkscape:version="1.1.2 (b8e25be8, 2022-02-05)"
   xmlns:inkscape="http://www.inkscape.org/namespaces/inkscape"
   xmlns:sodipodi="http://sodipodi.sourceforge.net/DTD/sodipodi-0.dtd"
   xmlns="http://www.w3.org/2000/svg"
   xmlns:svg="http://www.w3.org/2000/svg">
  <defs
     id="defs830" />
  <sodipodi:namedview
     id="namedview828"
     pagecolor="#ffffff"
     bordercolor="#666666"
     borderopacity="1.0"
     inkscape:pageshadow="2"
     inkscape:pageopacity="0.0"
     inkscape:pagecheckerboard="0"
     showgrid="false"
     inkscape:zoom="35.291667"
     inkscape:cx="13.076741"
     inkscape:cy="12.226682"
     inkscape:window-width="1920"
     inkscape:window-height="1027"
     inkscape:window-x="1728"
     inkscape:window-y="25"
     inkscape:window-maximized="1"
     inkscape:current-layer="svg826" />
  <path
     d="m 12.003518,6.5369999 c -2.128097,0 -3.9157046,1.4573224 -4.4613487,3.4177269 C 7.0654751,8.906 6.0158965,8.1628677 4.7969206,8.1628677 a 3.0389256,3.0389256 0 0 0 -3.023603,3.0244543 3.0389256,3.0389256 0 0 0 3.023603,3.024455 c 1.2189759,0 2.2677028,-0.743984 2.7443971,-1.792711 0.545645,1.961257 2.3341033,3.418579 4.4622003,3.418579 2.117033,0 3.895273,-1.441149 4.452835,-3.385381 0.484356,1.03 1.517761,1.759513 2.722264,1.759513 a 3.0389256,3.0389256 0 0 0 3.024455,-3.024455 3.0389256,3.0389256 0 0 0 -3.024455,-3.0244543 c -1.205355,0 -2.23876,0.7303637 -2.723115,1.7595128 C 15.898791,7.9781487 14.120551,6.5361487 12.003518,6.5369999 m 0,1.7748348 c 1.598629,0 2.875488,1.2768595 2.875488,2.8754873 0,1.598629 -1.276859,2.875488 -2.875488,2.875488 A 2.8601653,2.8601653 0 0 1 9.1288793,11.187322 c 0,-1.5986278 1.2768627,-2.8754873 2.8746387,-2.8754873 M 4.7969206,9.9377025 c 0.6997194,0 1.2487692,0.5490495 1.2487692,1.2496195 0,0.70057 -0.5481981,1.248768 -1.2487692,1.24962 A 1.2342975,1.2342975 0 0 1 3.5481525,11.187322 1.2342975,1.2342975 0 0 1 4.7969206,9.9385541 Z m 14.3816964,0 c 0.700571,0 1.24962,0.5490495 1.24962,1.2496195 0,0.70057 -0.549049,1.24962 -1.24962,1.24962 a 1.2342975,1.2342975 0 0 1 -1.248768,-1.24962 1.2342975,1.2342975 0 0 1 1.248768,-1.2487679 z"
     id="path824"
     style="stroke-width:0.85124" />
</svg>
