<?xml version="1.0" encoding="UTF-8"?>
<svg id="Bold" xmlns="http://www.w3.org/2000/svg" xmlns:xlink="http://www.w3.org/1999/xlink" version="1.1" viewBox="0 0 512 512">
  <defs>
    <style>
      .cls-1 {
        fill: none;
      }

      .cls-1, .cls-2, .cls-3, .cls-4 {
        stroke-width: 0px;
      }

      .cls-5 {
        filter: url(#drop-shadow-1);
      }

      .cls-2 {
        fill: #383838;
      }

      .cls-3 {
        fill: #fffef8;
      }

      .cls-4 {
        fill: #fff;
      }

      .cls-6 {
        fill: #d4d9e8;
        stroke: #3d3d3d;
        stroke-miterlimit: 10;
        stroke-width: 20px;
      }
    </style>
    <filter id="drop-shadow-1" filterUnits="userSpaceOnUse">
      <feOffset dx="3" dy="3"/>
      <feGaussianBlur result="blur" stdDeviation="5"/>
      <feFlood flood-color="#000" flood-opacity=".8"/>
      <feComposite in2="blur" operator="in"/>
      <feComposite in="SourceGraphic"/>
    </filter>
  </defs>
  <g>
    <rect class="cls-6" x="60.7" y="60.7" width="390.6" height="390.6" rx="73.2" ry="73.2"/>
    <path class="cls-1" d="M378.1,70.7c34.8,0,63.2,28.4,63.2,63.2v244.2c0,34.8-28.4,63.2-63.2,63.2h-244.2c-34.8,0-63.2-28.4-63.2-63.2v-244.2c0-34.8,28.4-63.2,63.2-63.2h244.2M378.1,50.7h-244.2c-46,0-83.2,37.2-83.2,83.2v244.2c0,46,37.2,83.2,83.2,83.2h244.2c46,0,83.2-37.2,83.2-83.2v-244.2c0-46-37.2-83.2-83.2-83.2h0Z"/>
  </g>
  <path class="cls-4" d="M379.2,80.4c28.9,0,52.4,23.5,52.4,52.4v246.4c0,28.9-23.5,52.4-52.4,52.4h-246.4c-28.9,0-52.4-23.5-52.4-52.4v-246.4c0-28.9,23.5-52.4,52.4-52.4h246.4M379.2,70.7h-246.4c-34.3,0-62.1,27.8-62.1,62.1v246.4c0,34.3,27.8,62.1,62.1,62.1h246.4c34.3,0,62.1-27.8,62.1-62.1v-246.4c0-34.3-27.8-62.1-62.1-62.1h0Z"/>
  <g class="cls-5">
    <g>
      <path class="cls-2" d="M186.6,372.1c-25,.6-47.3-15.9-54.2-39.8-4.1-14.1-2.4-29,4.8-41.9,7.1-12.9,18.9-22.1,32.9-26.2,4.5-1.3,9.2-2,13.8-2.1,6.9-.1,13.7,1,20.2,3.3l.8.2c.5,0,1-.2,1.4-.6l65.8-57.6c.6-.5.9-1.3.7-2.1-5.4-27.9,11.5-55.7,38.9-63.5,4.6-1.4,9.2-2,13.9-2.1,9.8-.2,19.3,2.2,27.8,7,12.9,7.1,22.1,18.9,26.1,33,4.1,14.1,2.4,29.1-4.7,41.8-7.1,12.9-18.9,22.1-33,26.1-4.5,1.3-9.2,2-13.9,2.1-6.7.2-13.3-1-19.7-3.2l-.8-.2c-.5,0-1,.2-1.4.6l-66.2,57.8c-.6.5-.9,1.3-.7,2.1,5.2,27.6-11.8,55.3-38.8,63.1-4.5,1.3-9.2,2-13.8,2.1h0v.2h.1Z"/>
      <g>
        <circle class="cls-3" cx="326.6" cy="194.7" r="34.8" transform="translate(-42 288) rotate(-45)"/>
        <circle class="cls-3" cx="185.4" cy="317.3" r="34.8" transform="translate(-181.8 331.4) rotate(-61.9)"/>
      </g>
    </g>
    <rect class="cls-3" x="175.4" y="248.7" width="157.1" height="17.5" transform="translate(-106.8 232.3) rotate(-41.4)"/>
  </g>
</svg>